<svg xmlns="http://www.w3.org/2000/svg" xmlns:xlink="http://www.w3.org/1999/xlink" width="152" zoomAndPan="magnify" viewBox="0 0 114 41.25" height="55" preserveAspectRatio="xMidYMid meet" version="1.0"><defs><g/><clipPath id="be0f3a2e17"><path d="M 5.070312 4.472656 L 24.222656 4.472656 L 24.222656 36 L 5.070312 36 Z M 5.070312 4.472656 " clip-rule="nonzero"/></clipPath></defs><g clip-path="url(#be0f3a2e17)"><path fill="#008037" d="M 10.851562 12.695312 L 10.851562 10.125 C 10.851562 9.765625 11.0625 9.46875 11.402344 9.324219 L 11.53125 9.28125 L 22.777344 4.976562 L 23.074219 4.871094 C 23.347656 4.765625 23.625 4.808594 23.859375 4.957031 C 24.09375 5.125 24.222656 5.359375 24.222656 5.652344 L 24.222656 11.917969 C 24.222656 12.273438 24.007812 12.570312 23.667969 12.71875 L 23.539062 12.761719 L 7.746094 18.8125 C 7.40625 18.941406 7.195312 19.257812 7.195312 19.613281 L 7.195312 20.984375 C 7.195312 21.28125 7.324219 21.511719 7.554688 21.679688 C 7.789062 21.851562 8.085938 21.871094 8.34375 21.765625 L 22.753906 16.21875 L 23.050781 16.113281 C 23.328125 16.007812 23.605469 16.050781 23.839844 16.199219 C 24.070312 16.367188 24.199219 16.621094 24.199219 16.894531 L 24.199219 22.734375 C 24.199219 23.09375 23.988281 23.390625 23.648438 23.515625 L 23.519531 23.558594 L 18.863281 25.351562 C 18.523438 25.476562 18.3125 25.792969 18.3125 26.132812 L 18.3125 32.015625 C 18.3125 32.351562 18.140625 32.628906 17.84375 32.773438 L 17.714844 32.839844 L 12.339844 35.558594 L 12.019531 35.707031 C 11.742188 35.855469 11.445312 35.832031 11.191406 35.664062 C 10.9375 35.496094 10.785156 35.242188 10.785156 34.945312 L 10.785156 25.097656 C 10.785156 24.738281 11 24.445312 11.339844 24.296875 L 11.765625 24.128906 C 12.042969 24.023438 12.316406 24.066406 12.550781 24.210938 C 12.785156 24.378906 12.914062 24.613281 12.914062 24.90625 L 12.914062 31.46875 C 12.914062 31.761719 13.0625 32.035156 13.316406 32.183594 C 13.570312 32.351562 13.871094 32.351562 14.144531 32.226562 L 15.675781 31.445312 C 15.972656 31.296875 16.144531 31.023438 16.144531 30.6875 L 16.144531 24.65625 C 16.144531 24.296875 16.355469 24 16.695312 23.875 L 16.824219 23.832031 L 21.480469 22.039062 C 21.820312 21.914062 22.03125 21.597656 22.03125 21.257812 L 22.03125 19.953125 C 22.03125 19.65625 21.902344 19.425781 21.671875 19.257812 C 21.4375 19.085938 21.160156 19.066406 20.882812 19.171875 L 12.234375 22.503906 L 7.960938 24.148438 L 6.472656 24.71875 L 6.175781 24.824219 C 5.898438 24.929688 5.621094 24.886719 5.386719 24.738281 C 5.152344 24.570312 5.027344 24.316406 5.027344 24.042969 L 5.027344 18.136719 C 5.027344 17.78125 5.238281 17.484375 5.578125 17.335938 L 5.707031 17.292969 L 8.171875 16.34375 L 15.25 13.625 L 21.5 11.21875 C 21.839844 11.09375 22.054688 10.777344 22.054688 10.417969 L 22.054688 8.667969 C 22.054688 8.375 21.925781 8.140625 21.691406 7.972656 C 21.457031 7.804688 21.179688 7.78125 20.90625 7.886719 L 13.507812 10.714844 C 13.167969 10.839844 12.957031 11.15625 12.957031 11.515625 L 12.957031 12.484375 C 12.957031 12.84375 12.742188 13.140625 12.402344 13.289062 L 11.976562 13.457031 C 11.699219 13.5625 11.425781 13.519531 11.191406 13.371094 C 10.957031 13.203125 10.828125 12.972656 10.828125 12.675781 Z M 10.851562 12.695312 " fill-opacity="1" fill-rule="evenodd"/></g><g fill="#000000" fill-opacity="0.4"><g transform="translate(26.890272, 26.02955)"><g><path d="M 7.609375 -9.953125 L 7.609375 -8.3125 L 3.265625 -8.3125 L 3.265625 -5.671875 L 7.203125 -5.671875 L 7.203125 -4.046875 L 3.265625 -4.046875 L 3.265625 0 L 1.296875 0 L 1.296875 -9.953125 Z M 7.609375 -9.953125 "/></g></g></g><g fill="#000000" fill-opacity="0.4"><g transform="translate(34.941203, 26.02955)"><g><path d="M 9.5625 0 L 7.484375 0 L 6.734375 -2.296875 L 2.921875 -2.296875 L 2.171875 0 L 0.15625 0 L 3.59375 -9.953125 L 6.125 -9.953125 Z M 4.734375 -7.875 L 3.453125 -3.953125 L 6.1875 -3.953125 L 4.90625 -7.875 Z M 4.734375 -7.875 "/></g></g></g><g fill="#000000" fill-opacity="0.4"><g transform="translate(44.647274, 26.02955)"><g><path d="M 3.09375 0 L 1.296875 0 L 1.296875 -9.953125 L 3.875 -9.953125 L 6.390625 -2.640625 L 6.53125 -2.640625 L 9.046875 -9.953125 L 11.5625 -9.953125 L 11.5625 0 L 9.6875 0 L 9.6875 -6.578125 L 9.515625 -6.609375 L 7.21875 0 L 5.578125 0 L 3.265625 -6.609375 L 3.09375 -6.578125 Z M 3.09375 0 "/></g></g></g><g fill="#000000" fill-opacity="0.4"><g transform="translate(57.506966, 26.02955)"><g><path d="M 3.265625 0 L 1.296875 0 L 1.296875 -9.953125 L 3.265625 -9.953125 Z M 3.265625 0 "/></g></g></g><g fill="#000000" fill-opacity="0.4"><g transform="translate(62.070523, 26.02955)"><g><path d="M 5.4375 0.140625 C 4.519531 0.140625 3.710938 -0.046875 3.015625 -0.421875 C 2.316406 -0.804688 1.769531 -1.378906 1.375 -2.140625 C 0.976562 -2.910156 0.78125 -3.859375 0.78125 -4.984375 C 0.78125 -6.097656 0.976562 -7.035156 1.375 -7.796875 C 1.769531 -8.566406 2.316406 -9.144531 3.015625 -9.53125 C 3.710938 -9.914062 4.519531 -10.109375 5.4375 -10.109375 C 6.394531 -10.109375 7.207031 -9.921875 7.875 -9.546875 C 8.550781 -9.171875 9.03125 -8.597656 9.3125 -7.828125 L 7.875 -6.953125 L 7.71875 -6.953125 C 7.5 -7.472656 7.207031 -7.84375 6.84375 -8.0625 C 6.476562 -8.289062 6.007812 -8.40625 5.4375 -8.40625 C 4.613281 -8.40625 3.96875 -8.128906 3.5 -7.578125 C 3.039062 -7.035156 2.8125 -6.171875 2.8125 -4.984375 C 2.8125 -3.796875 3.039062 -2.925781 3.5 -2.375 C 3.96875 -1.832031 4.613281 -1.5625 5.4375 -1.5625 C 6.738281 -1.5625 7.535156 -2.191406 7.828125 -3.453125 L 7.984375 -3.453125 L 9.4375 -2.6875 C 9.164062 -1.75 8.703125 -1.039062 8.046875 -0.5625 C 7.390625 -0.09375 6.519531 0.140625 5.4375 0.140625 Z M 5.4375 0.140625 "/></g></g></g><g fill="#000000" fill-opacity="0.4"><g transform="translate(71.837895, 26.02955)"><g><path d="M 7.71875 -6.21875 L 7.71875 -9.953125 L 9.6875 -9.953125 L 9.6875 0 L 7.71875 0 L 7.71875 -4.53125 L 3.265625 -4.53125 L 3.265625 0 L 1.296875 0 L 1.296875 -9.953125 L 3.265625 -9.953125 L 3.265625 -6.21875 Z M 7.71875 -6.21875 "/></g></g></g><g fill="#000000" fill-opacity="0.4"><g transform="translate(82.824486, 26.02955)"><g><path d="M 9.5625 0 L 7.484375 0 L 6.734375 -2.296875 L 2.921875 -2.296875 L 2.171875 0 L 0.15625 0 L 3.59375 -9.953125 L 6.125 -9.953125 Z M 4.734375 -7.875 L 3.453125 -3.953125 L 6.1875 -3.953125 L 4.90625 -7.875 Z M 4.734375 -7.875 "/></g></g></g><g fill="#000000" fill-opacity="0.4"><g transform="translate(92.530557, 26.02955)"><g><path d="M 3.265625 0 L 1.296875 0 L 1.296875 -9.953125 L 3.265625 -9.953125 Z M 3.265625 0 "/></g></g></g><g fill="#000000" fill-opacity="0.4"><g transform="translate(97.094113, 26.02955)"><g><path d="M 3.203125 0 L 1.296875 0 L 1.296875 -9.953125 L 3.546875 -9.953125 L 7.546875 -3.546875 L 7.71875 -3.5625 L 7.71875 -9.953125 L 9.625 -9.953125 L 9.625 0 L 7.609375 0 L 3.375 -6.859375 L 3.203125 -6.828125 Z M 3.203125 0 "/></g></g></g><g fill="#11a57c" fill-opacity="1"><g transform="translate(26.273668, 25.412946)"><g><path d="M 7.609375 -9.953125 L 7.609375 -8.3125 L 3.265625 -8.3125 L 3.265625 -5.671875 L 7.203125 -5.671875 L 7.203125 -4.046875 L 3.265625 -4.046875 L 3.265625 0 L 1.296875 0 L 1.296875 -9.953125 Z M 7.609375 -9.953125 "/></g></g></g><g fill="#11a57c" fill-opacity="1"><g transform="translate(34.324598, 25.412946)"><g><path d="M 9.5625 0 L 7.484375 0 L 6.734375 -2.296875 L 2.921875 -2.296875 L 2.171875 0 L 0.15625 0 L 3.59375 -9.953125 L 6.125 -9.953125 Z M 4.734375 -7.875 L 3.453125 -3.953125 L 6.1875 -3.953125 L 4.90625 -7.875 Z M 4.734375 -7.875 "/></g></g></g><g fill="#11a57c" fill-opacity="1"><g transform="translate(44.030669, 25.412946)"><g><path d="M 3.09375 0 L 1.296875 0 L 1.296875 -9.953125 L 3.875 -9.953125 L 6.390625 -2.640625 L 6.53125 -2.640625 L 9.046875 -9.953125 L 11.5625 -9.953125 L 11.5625 0 L 9.6875 0 L 9.6875 -6.578125 L 9.515625 -6.609375 L 7.21875 0 L 5.578125 0 L 3.265625 -6.609375 L 3.09375 -6.578125 Z M 3.09375 0 "/></g></g></g><g fill="#11a57c" fill-opacity="1"><g transform="translate(56.890362, 25.412946)"><g><path d="M 3.265625 0 L 1.296875 0 L 1.296875 -9.953125 L 3.265625 -9.953125 Z M 3.265625 0 "/></g></g></g><g fill="#11a57c" fill-opacity="1"><g transform="translate(61.453918, 25.412946)"><g><path d="M 5.4375 0.140625 C 4.519531 0.140625 3.710938 -0.046875 3.015625 -0.421875 C 2.316406 -0.804688 1.769531 -1.378906 1.375 -2.140625 C 0.976562 -2.910156 0.78125 -3.859375 0.78125 -4.984375 C 0.78125 -6.097656 0.976562 -7.035156 1.375 -7.796875 C 1.769531 -8.566406 2.316406 -9.144531 3.015625 -9.53125 C 3.710938 -9.914062 4.519531 -10.109375 5.4375 -10.109375 C 6.394531 -10.109375 7.207031 -9.921875 7.875 -9.546875 C 8.550781 -9.171875 9.03125 -8.597656 9.3125 -7.828125 L 7.875 -6.953125 L 7.71875 -6.953125 C 7.5 -7.472656 7.207031 -7.84375 6.84375 -8.0625 C 6.476562 -8.289062 6.007812 -8.40625 5.4375 -8.40625 C 4.613281 -8.40625 3.96875 -8.128906 3.5 -7.578125 C 3.039062 -7.035156 2.8125 -6.171875 2.8125 -4.984375 C 2.8125 -3.796875 3.039062 -2.925781 3.5 -2.375 C 3.96875 -1.832031 4.613281 -1.5625 5.4375 -1.5625 C 6.738281 -1.5625 7.535156 -2.191406 7.828125 -3.453125 L 7.984375 -3.453125 L 9.4375 -2.6875 C 9.164062 -1.75 8.703125 -1.039062 8.046875 -0.5625 C 7.390625 -0.09375 6.519531 0.140625 5.4375 0.140625 Z M 5.4375 0.140625 "/></g></g></g><g fill="#11a57c" fill-opacity="1"><g transform="translate(71.22129, 25.412946)"><g><path d="M 7.71875 -6.21875 L 7.71875 -9.953125 L 9.6875 -9.953125 L 9.6875 0 L 7.71875 0 L 7.71875 -4.53125 L 3.265625 -4.53125 L 3.265625 0 L 1.296875 0 L 1.296875 -9.953125 L 3.265625 -9.953125 L 3.265625 -6.21875 Z M 7.71875 -6.21875 "/></g></g></g><g fill="#11a57c" fill-opacity="1"><g transform="translate(82.207881, 25.412946)"><g><path d="M 9.5625 0 L 7.484375 0 L 6.734375 -2.296875 L 2.921875 -2.296875 L 2.171875 0 L 0.15625 0 L 3.59375 -9.953125 L 6.125 -9.953125 Z M 4.734375 -7.875 L 3.453125 -3.953125 L 6.1875 -3.953125 L 4.90625 -7.875 Z M 4.734375 -7.875 "/></g></g></g><g fill="#11a57c" fill-opacity="1"><g transform="translate(91.913952, 25.412946)"><g><path d="M 3.265625 0 L 1.296875 0 L 1.296875 -9.953125 L 3.265625 -9.953125 Z M 3.265625 0 "/></g></g></g><g fill="#11a57c" fill-opacity="1"><g transform="translate(96.477508, 25.412946)"><g><path d="M 3.203125 0 L 1.296875 0 L 1.296875 -9.953125 L 3.546875 -9.953125 L 7.546875 -3.546875 L 7.71875 -3.5625 L 7.71875 -9.953125 L 9.625 -9.953125 L 9.625 0 L 7.609375 0 L 3.375 -6.859375 L 3.203125 -6.828125 Z M 3.203125 0 "/></g></g></g></svg>